<svg version="1.2" xmlns="http://www.w3.org/2000/svg" viewBox="0 0 1220 389" width="1220" height="389">
	<title>selal -05-svg</title>
	<style>
		tspan { white-space:pre } 
		.t0 { font-size: 208px;fill: #232862;font-weight: bold;font-style: italic;font-family: "Alien Encounters Solid Bold Italic" } 
		.t1 { font-size: 103px;fill: #232862;font-style: italic;font-family: "Alien Encounters Solid Italic" } 
		.s2 { fill: #232862 } 
		.s3 { fill: #fee528 } 
	</style>
	<text id="SEALAL" style="transform: matrix(1,0,0,1,332.19,204.68)" >
		<tspan x="0" y="0" class="t0">SEALAL
</tspan>
	</text>
	<text id=" " style="transform: matrix(1,0,0,1,1383.22,656.26)" >
		<tspan x="0" y="0" class="t1"> 
</tspan>
	</text>
	<path id="Layer" class="s2" d="m264.9 290.3l-73.9 73.9c-4.8 4.8-10.4 8.5-16.6 11.1-6.3 2.6-12.9 3.9-19.7 3.9-6.7 0-13.4-1.3-19.6-3.9-6.2-2.6-11.9-6.3-16.7-11.1l-73.9-73.9c-4.7-4.8-8.5-10.4-11.1-16.7-2.6-6.2-3.9-12.9-3.9-19.6 0-6.7 1.3-13.4 3.9-19.6 2.6-6.3 6.4-11.9 11.1-16.7l0.9-0.8 8.4-7.4 25.6 29-7.8 6.9c-1.1 1.2-2 2.6-2.6 4.1-0.5 1.5-0.8 3.1-0.8 4.8 0.1 1.6 0.4 3.2 1 4.7 0.7 1.4 1.6 2.8 2.7 3.9l73.9 73.9c1.2 1.2 2.6 2.1 4.1 2.7 1.5 0.7 3.2 1 4.8 1 1.7 0 3.3-0.3 4.8-1 1.6-0.6 3-1.5 4.1-2.7l73.9-73.9c1.2-1.1 2.1-2.5 2.7-4.1 0.7-1.5 1-3.1 1-4.8 0-1.7-0.3-3.3-1-4.8-0.6-1.6-1.5-2.9-2.7-4.1l-15.2-15.2 27.8-27 14.8 14.8c4.8 4.7 8.5 10.4 11.1 16.6 2.6 6.3 3.9 12.9 3.9 19.7 0 6.7-1.3 13.4-3.9 19.6-2.6 6.3-6.4 11.9-11.1 16.7z"/>
	<path id="Layer" class="s3" d="m215.7 168.4l-26.6 28.1-31.3-31.3c-1.2-1.1-2.6-2-4.1-2.7-1.5-0.6-3.2-0.9-4.8-0.9-1.7 0-3.3 0.3-4.9 0.9-1.5 0.7-2.9 1.6-4 2.7l-24 24-27.4-27.3 24-24c4.7-4.8 10.4-8.6 16.6-11.1 6.3-2.6 12.9-3.9 19.7-3.9 6.7 0 13.4 1.3 19.6 3.9 6.2 2.5 11.9 6.3 16.6 11.1z"/>
	<path id="Layer" class="s2" d="m222.6 127.4l7.3-7.5-70.7-70.7c-1.1-1.1-2.5-2.1-4-2.7-1.6-0.6-3.2-1-4.9-1-1.6 0-3.3 0.4-4.8 1-1.5 0.6-2.9 1.6-4.1 2.7l-73.8 73.9c-1.2 1.2-2.1 2.6-2.8 4.1-0.6 1.5-0.9 3.2-0.9 4.8 0 1.7 0.3 3.3 0.9 4.9 0.7 1.5 1.6 2.9 2.8 4.1l73.8 73.8c1.2 1.2 2.6 2.1 4.1 2.8 1.5 0.6 3.2 0.9 4.8 0.9 1.7 0 3.3-0.3 4.9-0.9 1.5-0.7 2.9-1.6 4-2.8l24-24 26.7-28.1 28.6 28.6-27.9 27-24 24c-4.7 4.7-10.4 8.5-16.6 11.1-6.3 2.6-12.9 3.9-19.7 3.9-6.7 0-13.4-1.3-19.6-3.9-6.2-2.6-11.9-6.4-16.6-11.1l-74-73.9c-4.7-4.8-8.5-10.5-11.1-16.7-2.5-6.2-3.9-12.9-3.9-19.6 0-6.8 1.4-13.4 3.9-19.7 2.6-6.2 6.4-11.8 11.1-16.6l74-73.9c4.7-4.8 10.4-8.5 16.6-11.1 6.2-2.6 12.9-3.9 19.6-3.9 6.8 0 13.4 1.3 19.7 3.9 6.2 2.6 11.9 6.3 16.6 11.1l70.8 70.7 8.6-8.7-0.5 47.2z"/>
</svg>